<?xml version="1.0" encoding="UTF-8"?><svg xmlns="http://www.w3.org/2000/svg" xmlns:xlink="http://www.w3.org/1999/xlink" width="375pt" zoomAndPan="magnify" viewBox="0 0 375 374.999991" height="374.999991pt" preserveAspectRatio="xMidYMid meet" version="1.2"><defs><filter x="0%" y="0%" width="100%" xmlns:xlink="http://www.w3.org/1999/xlink" xlink:type="simple" filterUnits="objectBoundingBox" xlink:actuate="onLoad" id="alpha" height="100%" xlink:show="other" xml:id="alpha"><feColorMatrix values="0 0 0 0 1 0 0 0 0 1 0 0 0 0 1 0 0 0 1 0" type="matrix" in="SourceGraphic"/></filter><clipPath xml:id="clip2" id="clip2"><path d="M 2 1 L 343.558594 1 L 343.558594 373.441406 L 2 373.441406 Z M 2 1 "/></clipPath><clipPath xml:id="clip1" id="clip1"><rect x="0" width="344" y="0" height="374"/></clipPath><clipPath xml:id="clip4" id="clip4"><path d="M 0.0390625 43 L 291.878906 43 L 291.878906 206.441406 L 0.0390625 206.441406 Z M 0.0390625 43 "/></clipPath><clipPath xml:id="clip5" id="clip5"><path d="M 105 1.941406 L 173 1.941406 L 173 158 L 105 158 Z M 105 1.941406 "/></clipPath><clipPath xml:id="clip3" id="clip3"><rect x="0" width="292" y="0" height="207"/></clipPath></defs><g xml:id="surface1" id="surface1"><g mask="url(#mask0)" transform="matrix(1,0,0,1,15,0)"><g xml:id="surface5" id="surface5" clip-path="url(#clip1)"><g clip-rule="nonzero" clip-path="url(#clip2)"><path style=" stroke:none;fill-rule:nonzero;fill:rgb(22.749329%,29.40979%,22.749329%);fill-opacity:1;" d="M 229.671875 11.203125 C 212.175781 5.300781 192.289062 1.425781 172.769531 1.425781 C 153.25 1.425781 134.464844 4.746094 117.15625 10.652344 C 116.785156 10.835938 116.417969 10.835938 116.050781 11.019531 C 51.042969 34.640625 3.164062 97.007812 2.246094 169.757812 L 2.246094 373.402344 L 343.476562 373.402344 L 343.476562 169.90625 C 342.554688 96.640625 295.414062 34.269531 229.671875 11.203125 Z M 229.671875 11.203125 "/></g></g><mask xml:id="mask0" id="mask0"><g filter="url(#alpha)"><rect x="0" width="375" y="0" height="374.999991" style="fill:rgb(0%,0%,0%);fill-opacity:0.3882;stroke:none;"/></g></mask></g><g mask="url(#mask1)" transform="matrix(1,0,0,1,41,83)"><g xml:id="surface8" id="surface8" clip-path="url(#clip3)"><g clip-rule="nonzero" clip-path="url(#clip4)"><path style=" stroke:none;fill-rule:nonzero;fill:rgb(10.198975%,14.118958%,10.198975%);fill-opacity:1;" d="M 2.199219 130.738281 C 27.429688 136.910156 52.195312 144.933594 76.257812 154.710938 C 76.167969 164.980469 84.003906 174.414062 93.792969 177.558594 C 103.582031 180.703125 114.679688 178.097656 123.019531 172.089844 C 153.078125 184.796875 183.769531 196.039062 214.921875 205.78125 C 217.515625 206.589844 220.34375 205.78125 222.117188 203.726562 C 243.632812 178.816406 269.148438 148.746094 290.753906 123.714844 C 292.539062 121.648438 291.769531 118.441406 289.238281 117.402344 C 221.410156 89.5 151.960938 66.5 83.476562 44.140625 C 82.269531 43.742188 81.011719 43.34375 79.765625 43.5625 C 78.09375 43.832031 76.808594 45.117188 75.640625 46.324219 C 55.535156 67.089844 48.035156 77.714844 27.941406 98.484375 L 1.054688 126.859375 C -0.191406 128.171875 0.449219 130.3125 2.199219 130.738281 Z M 2.199219 130.738281 "/></g><path style="fill-rule:nonzero;fill:rgb(100%,100%,100%);fill-opacity:1;stroke-width:1;stroke-linecap:round;stroke-linejoin:round;stroke:rgb(21.179199%,37.249756%,62.748718%);stroke-opacity:1;stroke-miterlimit:10;" d="M 185.240433 263.211487 C 178.131221 267.630631 169.921266 264.021055 166.631203 256.859729 C 164.970968 253.259283 164.338497 247.759701 160.929846 245.720565 C 156.36876 242.990556 150.010606 241.669683 144.999494 239.858808 C 139.559639 237.889671 134.730969 236.848799 129.260707 234.958793 C 127.618716 234.389661 118.599929 231.440522 111.709649 228.658774 C 128.029214 210.571328 145.349177 192.4991 161.680905 174.39948 C 162.580959 173.401216 163.590479 172.339039 164.931438 172.168604 C 164.779402 172.320778 165.560868 171.511211 165.408832 171.660341 C 196.019799 182.650375 269.109678 205.041312 315.650998 223.959629 C 301.00079 241.800553 288.290564 255.520594 266.461208 282.020239 C 265.889552 282.720241 250.75891 276.118917 248.989209 275.470654 C 243.750041 273.541083 238.498711 271.651077 233.229137 269.809768 C 227.190259 267.709761 221.130097 265.679755 215.060812 263.701488 C 208.720903 261.628873 201.158622 258.150167 194.34132 259.020605 C 191.020849 259.440606 188.129121 261.409742 185.240433 263.211487 Z M 185.240433 263.211487 " transform="matrix(1.284645,0,0,1.283478,-127.050185,-168.505913)"/><path style=" stroke:none;fill-rule:nonzero;fill:rgb(100%,100%,100%);fill-opacity:1;" d="M 226.816406 173.566406 C 221.460938 172.914062 213.148438 171.28125 207.5625 168.726562 C 203.257812 166.765625 198.441406 163.582031 194.175781 161.539062 C 190.257812 159.667969 182.972656 158.753906 178.644531 159.050781 C 161.671875 160.246094 147.425781 162.632812 130.457031 163.824219 L 125.226562 162.425781 L 127 162.953125 L 120.949219 161.167969 L 106.023438 155.789062 C 104.660156 153.789062 101.167969 151.09375 100.101562 150.375 C 73.636719 132.765625 45.476562 118.289062 16.46875 105.273438 C 24.859375 96.777344 31.949219 89.394531 40.273438 80.949219 C 37.550781 78.78125 34.765625 76.613281 31.898438 74.429688 C 38.757812 66.910156 47.621094 57.707031 54.484375 50.1875 C 54.664062 50.277344 51.375 48.542969 49.011719 47.296875 C 67.007812 35.527344 103.351562 20.523438 119.9375 9.792969 C 122.582031 16.585938 125.023438 24.207031 125.023438 31.714844 C 133.488281 25.171875 150.574219 9.34375 157.472656 2.644531 C 161.25 21.539062 171.695312 60.429688 172.59375 73.828125 C 185.078125 62.648438 196.859375 54.253906 209.425781 54.101562 C 216.746094 54.023438 232.90625 55.113281 241.425781 56.152344 C 232.355469 65.511719 223.042969 73.648438 213.226562 81.503906 C 222.167969 77.355469 231.800781 74.160156 241.296875 71.75 C 250.300781 69.464844 252.28125 68.050781 267.941406 74.40625 C 259.359375 78.703125 250.765625 83.015625 242.183594 87.316406 C 250.148438 88.894531 269.855469 92.554688 278.398438 94.863281 C 276.558594 96.699219 274.722656 98.546875 272.886719 100.382812 C 276.90625 101.523438 280.941406 102.679688 284.960938 103.824219 C 265.242188 128.054688 248.734375 151.335938 226.816406 173.566406 "/><path style="fill:none;stroke-width:1;stroke-linecap:round;stroke-linejoin:round;stroke:rgb(21.179199%,37.249756%,62.748718%);stroke-opacity:1;stroke-miterlimit:10;" d="M 181.181067 252.668846 C 180.141139 250.730145 178.651184 249.680142 176.820669 248.450573 C 156.219765 234.730531 134.299186 223.451367 111.718771 213.310467 C 118.399241 206.529577 123.568472 201.169996 130.248942 194.389106 " transform="matrix(1.284645,0,0,1.283478,-127.050185,-168.505913)"/><path style="fill:none;stroke-width:1;stroke-linecap:round;stroke-linejoin:round;stroke:rgb(21.179199%,37.249756%,62.748718%);stroke-opacity:1;stroke-miterlimit:10;" d="M 182.409519 252.20928 C 181.898678 246.508828 175.8598 239.578807 172.198768 235.180968 C 157.089412 217.020478 142.500019 203.620003 123.720508 189.27909 C 129.060019 183.420377 134.408652 177.54949 139.751204 171.690776 " transform="matrix(1.284645,0,0,1.283478,-127.050185,-168.505913)"/><path style="fill:none;stroke-width:1;stroke-linecap:round;stroke-linejoin:round;stroke:rgb(21.179199%,37.249756%,62.748718%);stroke-opacity:1;stroke-miterlimit:10;" d="M 183.479854 253.201457 C 185.349899 219.36092 165.788923 186.080385 137.038879 168.129896 C 151.050534 158.959868 179.341429 147.269833 192.249302 138.909373 C 194.310912 144.198954 196.211365 147.838965 196.211365 153.688548 " transform="matrix(1.284645,0,0,1.283478,-127.050185,-168.505913)"/><g clip-rule="nonzero" clip-path="url(#clip5)"><path style="fill:none;stroke-width:1;stroke-linecap:round;stroke-linejoin:round;stroke:rgb(21.179199%,37.249756%,62.748718%);stroke-opacity:1;stroke-miterlimit:10;" d="M 183.869067 253.219718 C 185.130967 245.248824 185.328614 238.120976 185.31037 230.049648 C 185.240433 209.140889 181.469935 188.591262 181.399999 167.67946 C 191.619872 159.078564 211.9015 142.65895 221.458495 133.330661 C 224.778965 146.630701 232.350368 175.878615 232.31996 187.839521 " transform="matrix(1.284645,0,0,1.283478,-127.050185,-168.505913)"/></g><path style="fill:none;stroke-width:1;stroke-linecap:round;stroke-linejoin:round;stroke:rgb(21.179199%,37.249756%,62.748718%);stroke-opacity:1;stroke-miterlimit:10;" d="M 183.479854 253.201457 C 241.509028 161.610746 259.221244 173.918609 268.890746 173.778609 C 275.090782 173.690348 282.178709 174.989917 286.809732 175.038612 C 271.660846 190.700399 255.639272 201.979563 236.671236 215.988736 C 219.399925 228.728774 206.501174 240.160113 193.03989 256.868859 " transform="matrix(1.284645,0,0,1.283478,-127.050185,-168.505913)"/><path style="fill:none;stroke-width:1;stroke-linecap:round;stroke-linejoin:round;stroke:rgb(21.179199%,37.249756%,62.748718%);stroke-opacity:1;stroke-miterlimit:10;" d="M 263.228918 196.081285 C 270.918909 192.200838 278.350438 189.300395 286.709388 187.179084 C 293.721297 185.398644 295.259903 184.299945 307.450165 189.248655 C 298.790184 193.588668 290.139325 197.928681 281.479343 202.280868 C 270.429353 207.820016 259.37024 213.371337 248.718584 219.650051 C 231.681408 229.690516 209.909826 244.850127 195.429899 258.311472 " transform="matrix(1.284645,0,0,1.283478,-127.050185,-168.505913)"/><path style="fill:none;stroke-width:1;stroke-linecap:round;stroke-linejoin:round;stroke:rgb(21.179199%,37.249756%,62.748718%);stroke-opacity:1;stroke-miterlimit:10;" d="M 288.159813 199.499121 C 297.440102 200.631298 306.62917 202.539565 315.590183 205.199573 C 303.910763 216.910913 292.231343 228.619209 280.548881 240.330548 C 279.8708 241.009246 279.141026 241.721422 278.201443 241.910118 C 277.149352 242.120119 276.109425 241.630117 275.139434 241.200986 C 261.939652 235.491403 246.790765 240.050547 233.1592 244.649257 C 225.089119 247.370135 219.250929 249.339271 211.180848 252.069279 C 205.780523 253.889285 200.240324 255.97103 196.378605 257.839732 " transform="matrix(1.284645,0,0,1.283478,-127.050185,-168.505913)"/><path style="fill:none;stroke-width:1;stroke-linecap:round;stroke-linejoin:round;stroke:rgb(21.179199%,37.249756%,62.748718%);stroke-opacity:1;stroke-miterlimit:10;" d="M 311.2906 209.500021 C 314.428627 210.400893 317.560572 211.289591 320.698599 212.190464 C 305.379432 231.060086 292.520211 249.199271 275.45871 266.519758 C 268.179217 263.850619 262.328864 259.099735 257.2691 255.219289 C 250.518693 250.051447 241.059001 251.171451 232.669644 252.54102 C 221.029753 254.440156 209.389862 256.351466 197.749971 258.250602 " transform="matrix(1.284645,0,0,1.283478,-127.050185,-168.505913)"/><path style="fill:none;stroke-width:1;stroke-linecap:round;stroke-linejoin:round;stroke:rgb(21.179199%,37.249756%,62.748718%);stroke-opacity:1;stroke-miterlimit:10;" d="M 198.41893 258.92017 C 211.630875 257.988862 224.739436 256.141466 237.951381 255.210158 C 241.320503 254.969723 246.991453 255.691029 250.041299 257.14886 C 253.370892 258.740604 257.110982 261.208872 260.458819 262.748877 C 265.661498 265.128884 270.359416 266.139322 275.449588 266.519758 " transform="matrix(1.284645,0,0,1.283478,-127.050185,-168.505913)"/><path style="fill:none;stroke-width:1;stroke-linecap:round;stroke-linejoin:round;stroke:rgb(21.179199%,37.249756%,62.748718%);stroke-opacity:1;stroke-miterlimit:10;" d="M 162.048832 246.508828 C 171.389936 248.791443 184.629248 253.661023 195.439021 258.92017 " transform="matrix(1.284645,0,0,1.283478,-127.050185,-168.505913)"/><path style="fill:none;stroke-width:1;stroke-linecap:round;stroke-linejoin:round;stroke:rgb(21.179199%,37.249756%,62.748718%);stroke-opacity:1;stroke-miterlimit:10;" d="M 117.420128 227.46877 C 119.77973 224.939632 122.139332 222.410494 124.511096 219.881356 " transform="matrix(1.284645,0,0,1.283478,-127.050185,-168.505913)"/><path style="fill:none;stroke-width:1;stroke-linecap:round;stroke-linejoin:round;stroke:rgb(21.179199%,37.249756%,62.748718%);stroke-opacity:1;stroke-miterlimit:10;" d="M 115.890644 215.209603 C 120.959531 209.509151 127.700816 202.749566 133.958625 197.998682 " transform="matrix(1.284645,0,0,1.283478,-127.050185,-168.505913)"/><path style="fill:none;stroke-width:1;stroke-linecap:round;stroke-linejoin:round;stroke:rgb(21.179199%,37.249756%,62.748718%);stroke-opacity:1;stroke-miterlimit:10;" d="M 165.910552 249.05014 C 166.150769 252.519716 168.790117 256.920598 171.228778 259.401041 C 173.670479 261.881483 175.881085 262.429311 179.350551 262.730616 " transform="matrix(1.284645,0,0,1.283478,-127.050185,-168.505913)"/></g><mask xml:id="mask1" id="mask1"><g filter="url(#alpha)"><rect x="0" width="375" y="0" height="374.999991" style="fill:rgb(0%,0%,0%);fill-opacity:0.8392;stroke:none;"/></g></mask></g></g></svg>