<?xml version="1.0" encoding="UTF-8"?><svg xmlns="http://www.w3.org/2000/svg" xmlns:xlink="http://www.w3.org/1999/xlink" width="1188pt" zoomAndPan="magnify" viewBox="0 0 1188 296.999993" height="296.999993pt" preserveAspectRatio="xMidYMid meet" version="1.2"><defs><g/><clipPath xml:id="clip1" id="clip1"><path d="M 1121 63 L 1184 63 L 1184 125 L 1121 125 Z M 1121 63 "/></clipPath><clipPath xml:id="clip2" id="clip2"><path d="M 1113.25 71.457031 L 1174.863281 55.089844 L 1191.230469 116.703125 L 1129.617188 133.070312 Z M 1113.25 71.457031 "/></clipPath><clipPath xml:id="clip3" id="clip3"><path d="M 1113.25 71.457031 L 1174.863281 55.089844 L 1191.230469 116.703125 L 1129.617188 133.070312 Z M 1113.25 71.457031 "/></clipPath><filter x="0%" y="0%" width="100%" xmlns:xlink="http://www.w3.org/1999/xlink" xlink:type="simple" filterUnits="objectBoundingBox" xlink:actuate="onLoad" id="alpha" height="100%" xlink:show="other" xml:id="alpha"><feColorMatrix values="0 0 0 0 1 0 0 0 0 1 0 0 0 0 1 0 0 0 1 0" type="matrix" in="SourceGraphic"/></filter><clipPath xml:id="clip5" id="clip5"><path d="M 1 1 L 267.761719 1 L 267.761719 291.519531 L 1 291.519531 Z M 1 1 "/></clipPath><clipPath xml:id="clip4" id="clip4"><rect x="0" width="268" y="0" height="292"/></clipPath><clipPath xml:id="clip7" id="clip7"><path d="M 0.078125 33 L 227.601562 33 L 227.601562 161 L 0.078125 161 Z M 0.078125 33 "/></clipPath><clipPath xml:id="clip8" id="clip8"><path d="M 82 1.53125 L 135 1.53125 L 135 123 L 82 123 Z M 82 1.53125 "/></clipPath><clipPath xml:id="clip6" id="clip6"><rect x="0" width="228" y="0" height="161"/></clipPath></defs><g xml:id="surface1" id="surface1"><g clip-rule="nonzero" clip-path="url(#clip1)"><g clip-rule="nonzero" clip-path="url(#clip2)"><g clip-rule="nonzero" clip-path="url(#clip3)"><path style=" stroke:none;fill-rule:nonzero;fill:rgb(22.749329%,29.40979%,22.749329%);fill-opacity:1;" d="M 1168.523438 103.527344 L 1156.53125 98.292969 L 1160.425781 124.890625 L 1150.609375 99.867188 L 1142.796875 110.363281 L 1148.03125 98.367188 L 1121.433594 102.265625 L 1146.460938 92.449219 L 1135.964844 84.636719 L 1147.957031 89.871094 L 1144.0625 63.273438 L 1153.878906 88.296875 L 1161.691406 77.800781 L 1156.457031 89.796875 L 1183.054688 85.898438 L 1158.027344 95.714844 Z M 1168.523438 103.527344 "/></g></g></g><g mask="url(#mask0)" transform="matrix(1,0,0,1,2,2)"><g xml:id="surface5" id="surface5" clip-path="url(#clip4)"><g clip-rule="nonzero" clip-path="url(#clip5)"><path style=" stroke:none;fill-rule:nonzero;fill:rgb(22.749329%,29.40979%,22.749329%);fill-opacity:1;" d="M 178.894531 9.039062 C 165.253906 4.4375 149.746094 1.414062 134.527344 1.414062 C 119.304688 1.414062 104.660156 4.003906 91.164062 8.609375 C 90.875 8.753906 90.589844 8.753906 90.300781 8.894531 C 39.617188 27.3125 2.285156 75.941406 1.566406 132.667969 L 1.566406 291.449219 L 267.628906 291.449219 L 267.628906 132.78125 C 266.910156 75.65625 230.152344 27.023438 178.894531 9.039062 Z M 178.894531 9.039062 "/></g></g><mask xml:id="mask0" id="mask0"><g filter="url(#alpha)"><rect x="0" width="1188" y="0" height="296.999993" style="fill:rgb(0%,0%,0%);fill-opacity:0.3882;stroke:none;"/></g></mask></g><g mask="url(#mask1)" transform="matrix(1,0,0,1,22,67)"><g xml:id="surface8" id="surface8" clip-path="url(#clip6)"><g clip-rule="nonzero" clip-path="url(#clip7)"><path style=" stroke:none;fill-rule:nonzero;fill:rgb(10.198975%,14.118958%,10.198975%);fill-opacity:1;" d="M 1.800781 101.957031 C 21.476562 106.769531 40.785156 113.027344 59.546875 120.652344 C 59.476562 128.65625 65.585938 136.011719 73.21875 138.464844 C 80.851562 140.917969 89.507812 138.886719 96.007812 134.203125 C 119.445312 144.109375 143.375 152.875 167.667969 160.472656 C 169.691406 161.101562 171.894531 160.472656 173.277344 158.871094 C 190.054688 139.445312 209.945312 115.996094 226.792969 96.484375 C 228.1875 94.871094 227.585938 92.371094 225.613281 91.558594 C 172.726562 69.804688 118.574219 51.871094 65.175781 34.4375 C 64.234375 34.125 63.253906 33.816406 62.28125 33.988281 C 60.980469 34.195312 59.976562 35.199219 59.066406 36.136719 C 43.390625 52.332031 37.542969 60.617188 21.875 76.808594 L 0.910156 98.933594 C -0.0625 99.957031 0.441406 101.628906 1.800781 101.957031 Z M 1.800781 101.957031 "/></g><path style="fill-rule:nonzero;fill:rgb(100%,100%,100%);fill-opacity:1;stroke-width:1;stroke-linecap:round;stroke-linejoin:round;stroke:rgb(21.179199%,37.249756%,62.748718%);stroke-opacity:1;stroke-miterlimit:10;" d="M 185.241876 263.209279 C 178.128646 267.631765 169.919572 264.021174 166.628143 256.858542 C 164.970729 253.25966 164.338962 247.759852 160.930539 245.718404 C 156.371676 242.989968 150.011107 241.670638 144.999867 239.859488 C 139.55965 237.8883 134.7317 236.850011 129.260285 234.960794 C 127.61847 234.390906 118.598239 231.439979 111.711196 228.6608 C 128.031849 210.56881 145.350849 192.50024 161.6793 174.400444 C 162.580154 173.401188 163.590201 172.339479 164.931732 172.171635 C 164.779639 172.319962 165.559599 171.508067 165.411407 171.660298 C 196.020916 182.648205 269.110919 205.041678 315.651101 223.961176 C 300.999563 241.799449 288.290123 255.519695 266.459057 282.019484 C 265.889687 282.718182 250.758473 276.121534 248.991864 275.469676 C 243.750537 273.541425 238.501409 271.648304 233.228883 269.80983 C 227.188097 267.709832 221.131712 265.680094 215.059727 263.7011 C 208.718657 261.628426 201.160849 258.150548 194.340104 259.020993 C 191.021376 259.438651 188.131626 261.409838 185.241876 263.209279 Z M 185.241876 263.209279 " transform="matrix(1.001655,0,0,1.000745,-98.974159,-131.366313)"/><path style=" stroke:none;fill-rule:nonzero;fill:rgb(100%,100%,100%);fill-opacity:1;" d="M 176.941406 135.351562 C 172.765625 134.84375 166.285156 133.570312 161.925781 131.578125 C 158.570312 130.046875 154.816406 127.566406 151.488281 125.976562 C 148.433594 124.515625 142.753906 123.804688 139.378906 124.035156 C 126.148438 124.964844 115.039062 126.824219 101.808594 127.757812 L 97.730469 126.664062 L 99.113281 127.074219 L 94.394531 125.683594 L 82.757812 121.492188 C 81.695312 119.929688 78.96875 117.828125 78.136719 117.269531 C 57.503906 103.539062 35.546875 92.25 12.929688 82.101562 C 19.472656 75.476562 25 69.722656 31.492188 63.136719 C 29.367188 61.445312 27.195312 59.757812 24.960938 58.054688 C 30.308594 52.191406 37.222656 45.015625 42.570312 39.152344 C 42.710938 39.21875 40.144531 37.871094 38.300781 36.898438 C 52.335938 27.722656 80.671875 16.023438 93.605469 7.65625 C 95.667969 12.949219 97.570312 18.894531 97.570312 24.75 C 104.171875 19.644531 117.492188 7.308594 122.871094 2.082031 C 125.816406 16.8125 133.960938 47.136719 134.660156 57.585938 C 144.398438 48.867188 153.582031 42.324219 163.378906 42.203125 C 169.089844 42.144531 181.691406 42.992188 188.332031 43.804688 C 181.257812 51.097656 173.996094 57.445312 166.34375 63.570312 C 173.316406 60.335938 180.828125 57.84375 188.230469 55.964844 C 195.25 54.183594 196.792969 53.082031 209.003906 58.035156 C 202.3125 61.386719 195.613281 64.75 188.921875 68.101562 C 195.132812 69.332031 210.496094 72.183594 217.15625 73.988281 C 215.726562 75.417969 214.292969 76.859375 212.859375 78.289062 C 215.996094 79.179688 219.140625 80.082031 222.277344 80.972656 C 206.902344 99.867188 194.03125 118.019531 176.941406 135.351562 "/><path style="fill:none;stroke-width:1;stroke-linecap:round;stroke-linejoin:round;stroke:rgb(21.179199%,37.249756%,62.748718%);stroke-opacity:1;stroke-miterlimit:10;" d="M 181.178287 252.670256 C 180.140941 250.730295 178.651219 249.680296 176.818314 248.450743 C 156.219584 234.730496 134.298823 223.449838 111.718996 213.308956 C 118.399349 206.528851 123.57048 201.169563 130.250833 194.389458 " transform="matrix(1.001655,0,0,1.000745,-98.974159,-131.366313)"/><path style="fill:none;stroke-width:1;stroke-linecap:round;stroke-linejoin:round;stroke:rgb(21.179199%,37.249756%,62.748718%);stroke-opacity:1;stroke-miterlimit:10;" d="M 182.410623 252.209661 C 181.89975 246.510782 175.858964 239.578447 172.200954 235.179381 C 157.089239 217.021034 142.500097 203.620861 123.718673 189.279983 C 129.061395 183.421067 134.411917 177.550441 139.75074 171.691524 " transform="matrix(1.001655,0,0,1.000745,-98.974159,-131.366313)"/><path style="fill:none;stroke-width:1;stroke-linecap:round;stroke-linejoin:round;stroke:rgb(21.179199%,37.249756%,62.748718%);stroke-opacity:1;stroke-miterlimit:10;" d="M 183.479168 253.20111 C 185.351071 219.359136 165.789687 186.079243 137.04038 168.131676 C 151.048453 158.958823 179.341483 147.268314 192.249812 138.911259 C 194.308905 144.200287 196.208107 147.838202 196.208107 153.689311 " transform="matrix(1.001655,0,0,1.000745,-98.974159,-131.366313)"/><g clip-rule="nonzero" clip-path="url(#clip8)"><path style="fill:none;stroke-width:1;stroke-linecap:round;stroke-linejoin:round;stroke:rgb(21.179199%,37.249756%,62.748718%);stroke-opacity:1;stroke-miterlimit:10;" d="M 183.869148 253.220627 C 185.128782 245.250003 185.331572 238.118597 185.308173 230.050389 C 185.241876 209.140187 181.470772 188.589091 181.400576 167.678889 C 191.621945 159.079827 211.900891 142.658467 221.459295 133.32948 C 224.781922 146.628166 232.351429 175.87981 232.320231 187.83965 " transform="matrix(1.001655,0,0,1.000745,-98.974159,-131.366313)"/></g><path style="fill:none;stroke-width:1;stroke-linecap:round;stroke-linejoin:round;stroke:rgb(21.179199%,37.249756%,62.748718%);stroke-opacity:1;stroke-miterlimit:10;" d="M 183.479168 253.20111 C 241.508153 161.609192 259.221033 173.920333 268.888631 173.779812 C 275.089309 173.690035 282.17914 174.989848 286.8082 175.040592 C 271.661387 190.700799 255.641019 201.981458 236.668505 215.990552 C 219.400202 228.73106 206.499672 240.160045 193.041471 256.870252 " transform="matrix(1.001655,0,0,1.000745,-98.974159,-131.366313)"/><path style="fill:none;stroke-width:1;stroke-linecap:round;stroke-linejoin:round;stroke:rgb(21.179199%,37.249756%,62.748718%);stroke-opacity:1;stroke-miterlimit:10;" d="M 263.230025 196.079605 C 270.920425 192.199683 278.349539 189.2995 286.710705 187.179985 C 293.718641 185.400061 295.259061 184.299319 307.449828 189.248756 C 298.788377 193.589272 290.138627 197.929789 281.481077 202.278112 C 270.429051 207.820857 259.369225 213.371409 248.718879 219.651887 C 231.680664 229.691282 209.908095 244.851862 195.428147 258.310585 " transform="matrix(1.001655,0,0,1.000745,-98.974159,-131.366313)"/><path style="fill:none;stroke-width:1;stroke-linecap:round;stroke-linejoin:round;stroke:rgb(21.179199%,37.249756%,62.748718%);stroke-opacity:1;stroke-miterlimit:10;" d="M 288.16143 199.498932 C 297.439048 200.630901 306.63087 202.539636 315.588705 205.201715 C 303.908811 216.91174 292.228918 228.621766 280.549025 240.331792 C 279.87046 241.010974 279.141198 241.721382 278.201347 241.908742 C 277.148402 242.119523 276.111056 241.631605 275.140006 241.198334 C 261.939192 235.491648 246.788479 240.050751 233.158687 244.648888 C 225.090006 247.369517 219.24811 249.340705 211.179429 252.069141 C 205.778209 253.888099 200.240497 255.96858 196.379698 257.838281 " transform="matrix(1.001655,0,0,1.000745,-98.974159,-131.366313)"/><path style="fill:none;stroke-width:1;stroke-linecap:round;stroke-linejoin:round;stroke:rgb(21.179199%,37.249756%,62.748718%);stroke-opacity:1;stroke-miterlimit:10;" d="M 311.291128 209.499294 C 314.430465 210.400966 317.558102 211.290928 320.701339 212.188697 C 305.379035 231.061355 292.521403 249.200185 275.459789 266.519313 C 268.178868 263.849427 262.329172 259.09906 257.271134 255.219138 C 250.520585 250.051113 241.059677 251.171373 232.671212 252.541446 C 221.030317 254.43847 209.389422 256.351107 197.748527 258.248131 " transform="matrix(1.001655,0,0,1.000745,-98.974159,-131.366313)"/><path style="fill:none;stroke-width:1;stroke-linecap:round;stroke-linejoin:round;stroke:rgb(21.179199%,37.249756%,62.748718%);stroke-opacity:1;stroke-miterlimit:10;" d="M 198.419292 258.919506 C 211.631805 257.990511 224.739024 256.140327 237.951538 255.211331 C 241.320963 254.969324 246.991268 255.691442 250.04091 257.151292 C 253.371337 258.739953 257.111243 261.210768 260.461169 262.748685 C 265.659599 265.129723 270.358854 266.140689 275.44809 266.519313 " transform="matrix(1.001655,0,0,1.000745,-98.974159,-131.366313)"/><path style="fill:none;stroke-width:1;stroke-linecap:round;stroke-linejoin:round;stroke:rgb(21.179199%,37.249756%,62.748718%);stroke-opacity:1;stroke-miterlimit:10;" d="M 162.049781 246.510782 C 171.389796 248.790334 184.629608 253.661705 195.439847 258.919506 " transform="matrix(1.001655,0,0,1.000745,-98.974159,-131.366313)"/><path style="fill:none;stroke-width:1;stroke-linecap:round;stroke-linejoin:round;stroke:rgb(21.179199%,37.249756%,62.748718%);stroke-opacity:1;stroke-miterlimit:10;" d="M 117.4205 227.47028 C 119.779877 224.940915 122.139255 222.411549 124.510331 219.87828 " transform="matrix(1.001655,0,0,1.000745,-98.974159,-131.366313)"/><path style="fill:none;stroke-width:1;stroke-linecap:round;stroke-linejoin:round;stroke:rgb(21.179199%,37.249756%,62.748718%);stroke-opacity:1;stroke-miterlimit:10;" d="M 115.891779 215.209883 C 120.961516 209.511004 127.700366 202.750416 133.959541 198.000049 " transform="matrix(1.001655,0,0,1.000745,-98.974159,-131.366313)"/><path style="fill:none;stroke-width:1;stroke-linecap:round;stroke-linejoin:round;stroke:rgb(21.179199%,37.249756%,62.748718%);stroke-opacity:1;stroke-miterlimit:10;" d="M 165.910581 249.051858 C 166.148468 252.521929 168.788631 256.920995 171.229904 259.399617 C 173.671177 261.878239 175.878463 262.428611 179.349282 262.729168 " transform="matrix(1.001655,0,0,1.000745,-98.974159,-131.366313)"/></g><mask xml:id="mask1" id="mask1"><g filter="url(#alpha)"><rect x="0" width="1188" y="0" height="296.999993" style="fill:rgb(0%,0%,0%);fill-opacity:0.8392;stroke:none;"/></g></mask></g><g style="fill:rgb(22.749329%,29.40979%,22.749329%);fill-opacity:1;"><g transform="translate(293.828598, 251.399587)"><path style="stroke:none;" d="M 18.617188 -151.515625 L 2.476562 -145.277344 C 2.476562 -145.277344 6.636719 -143.195312 6.636719 -131.410156 L 6.636719 -13.171875 C 6.636719 -1.386719 2.476562 0 2.476562 0 C 13.171875 0 18.714844 -2.078125 18.714844 -11.683594 L 18.714844 -16.636719 C 25.351562 -6.535156 37.730469 0 53.179688 0 C 82.789062 0 103.1875 -20.894531 103.1875 -53.277344 C 103.1875 -127.054688 19.113281 -113.984375 19.410156 -76.351562 C 28.71875 -108.4375 90.613281 -120.914062 90.613281 -52.980469 C 90.613281 -17.332031 70.90625 -4.160156 54.167969 -4.160156 C 29.609375 -4.160156 18.714844 -20.695312 18.714844 -42.285156 Z M 18.617188 -151.515625 "/></g></g><g style="fill:rgb(22.749329%,29.40979%,22.749329%);fill-opacity:1;"><g transform="translate(401.468256, 251.399587)"><path style="stroke:none;" d="M 53.375 -105.960938 C 25.253906 -105.960938 2.476562 -82.09375 2.476562 -52.882812 C 2.476562 -23.667969 25.253906 0.0976562 53.375 0.0976562 C 81.5 0.0976562 104.277344 -23.667969 104.277344 -52.882812 C 104.277344 -82.09375 81.5 -105.960938 53.375 -105.960938 Z M 53.375 -4.457031 C 32.183594 -4.457031 14.953125 -26.835938 14.953125 -53.375 C 14.953125 -79.917969 32.183594 -101.40625 53.375 -101.40625 C 74.570312 -101.40625 91.800781 -79.917969 91.800781 -53.375 C 91.800781 -26.835938 74.570312 -4.457031 53.375 -4.457031 Z M 53.375 -4.457031 "/></g></g><g style="fill:rgb(22.749329%,29.40979%,22.749329%);fill-opacity:1;"><g transform="translate(510.197165, 251.399587)"><path style="stroke:none;" d="M 53.375 -105.960938 C 25.253906 -105.960938 2.476562 -82.09375 2.476562 -52.882812 C 2.476562 -23.667969 25.253906 0.0976562 53.375 0.0976562 C 81.5 0.0976562 104.277344 -23.667969 104.277344 -52.882812 C 104.277344 -82.09375 81.5 -105.960938 53.375 -105.960938 Z M 53.375 -4.457031 C 32.183594 -4.457031 14.953125 -26.835938 14.953125 -53.375 C 14.953125 -79.917969 32.183594 -101.40625 53.375 -101.40625 C 74.570312 -101.40625 91.800781 -79.917969 91.800781 -53.375 C 91.800781 -26.835938 74.570312 -4.457031 53.375 -4.457031 Z M 53.375 -4.457031 "/></g></g><g style="fill:rgb(22.749329%,29.40979%,22.749329%);fill-opacity:1;"><g transform="translate(618.926074, 251.399587)"><path style="stroke:none;" d="M 18.714844 -36.441406 L 18.617188 -151.515625 L 2.476562 -145.277344 C 2.476562 -145.277344 6.636719 -143.195312 6.636719 -131.410156 L 6.636719 -13.171875 C 6.636719 -1.386719 2.476562 0 2.476562 0 L 22.777344 0 C 22.777344 0 18.714844 -1.289062 18.714844 -13.070312 L 18.714844 -33.96875 L 37.53125 -54.566406 L 64.667969 -13.171875 C 72.390625 -1.386719 69.121094 0 69.121094 0 L 89.421875 0 C 89.421875 0 84.472656 -1.289062 76.746094 -13.070312 L 44.5625 -62.191406 L 72.589844 -92.789062 C 81.105469 -102.199219 91.898438 -105.863281 91.898438 -105.863281 L 75.460938 -105.863281 C 75.460938 -105.863281 76.847656 -100.019531 70.210938 -92.691406 Z M 18.714844 -36.441406 "/></g></g><g style="fill:rgb(22.749329%,29.40979%,22.749329%);fill-opacity:1;"><g transform="translate(715.27691, 251.399587)"><path style="stroke:none;" d="M 18.714844 -105.960938 L 2.574219 -99.722656 C 2.574219 -99.722656 6.636719 -97.742188 6.636719 -85.859375 L 6.636719 -13.171875 C 6.636719 -1.386719 2.476562 0 2.476562 0 C 13.171875 0 18.714844 -2.078125 18.714844 -11.683594 Z M 118.734375 0 L 139.039062 0 C 139.039062 0 134.976562 -1.289062 134.976562 -13.070312 L 134.878906 -79.917969 C 134.878906 -110.8125 79.324219 -119.429688 77.539062 -76.351562 C 83.777344 -107.050781 122.894531 -109.722656 122.894531 -80.90625 C 122.894531 -17.824219 122.894531 -13.171875 122.894531 -13.171875 C 122.894531 -1.386719 118.734375 0 118.734375 0 Z M 60.605469 0 L 80.90625 0 C 80.90625 0 76.746094 -1.289062 76.746094 -13.070312 L 76.746094 -79.917969 C 76.746094 -110.8125 21.09375 -119.429688 19.410156 -76.351562 C 25.648438 -107.050781 64.765625 -109.722656 64.765625 -80.90625 C 64.765625 -17.824219 64.765625 -13.171875 64.765625 -13.171875 C 64.765625 -1.386719 60.605469 0 60.605469 0 Z M 60.605469 0 "/></g></g><g style="fill:rgb(22.749329%,29.40979%,22.749329%);fill-opacity:1;"><g transform="translate(858.763438, 251.399587)"><path style="stroke:none;" d="M 83.480469 -44.066406 C 83.480469 -24.164062 70.210938 -5.644531 46.347656 -5.644531 C 27.234375 -5.644531 15.050781 -15.25 15.050781 -34.363281 C 15.050781 -72.390625 78.726562 -64.964844 82.886719 -76.351562 C 74.46875 -64.765625 2.476562 -78.332031 2.476562 -30.601562 C 2.476562 -19.804688 11.289062 0 43.769531 0 C 66.050781 0 77.640625 -13.171875 83.480469 -26.441406 L 83.480469 -13.171875 C 83.480469 -1.1875 91.105469 0 99.625 0 C 99.625 0 95.5625 -1.289062 95.5625 -13.070312 L 95.5625 -71.003906 C 95.664062 -89.125 90.511719 -106.058594 57.238281 -106.058594 C 39.117188 -106.058594 20.894531 -99.722656 11.882812 -80.808594 L 22.480469 -73.777344 C 26.539062 -91.207031 39.910156 -102.792969 57.140625 -102.792969 C 80.707031 -102.792969 83.480469 -86.949219 83.480469 -70.90625 Z M 83.480469 -44.066406 "/></g></g><g style="fill:rgb(22.749329%,29.40979%,22.749329%);fill-opacity:1;"><g transform="translate(962.838162, 251.399587)"><path style="stroke:none;" d="M 19.210938 -76.351562 C 24.957031 -104.675781 63.378906 -110.023438 71.203125 -81.796875 L 81.898438 -84.371094 C 74.273438 -114.179688 20.796875 -114.476562 19.210938 -76.351562 Z M 2.476562 0 L 22.777344 0 C 22.777344 0 18.714844 -1.289062 18.714844 -13.070312 L 18.617188 -106.058594 L 2.476562 -99.820312 C 2.476562 -99.820312 6.636719 -97.839844 6.636719 -86.054688 L 6.636719 -13.171875 C 6.636719 -1.386719 2.476562 0 2.476562 0 Z M 2.476562 0 "/></g></g><g style="fill:rgb(22.749329%,29.40979%,22.749329%);fill-opacity:1;"><g transform="translate(1049.187525, 251.399587)"><path style="stroke:none;" d="M 18.714844 -36.441406 L 18.617188 -151.515625 L 2.476562 -145.277344 C 2.476562 -145.277344 6.636719 -143.195312 6.636719 -131.410156 L 6.636719 -13.171875 C 6.636719 -1.386719 2.476562 0 2.476562 0 L 22.777344 0 C 22.777344 0 18.714844 -1.289062 18.714844 -13.070312 L 18.714844 -33.96875 L 37.53125 -54.566406 L 64.667969 -13.171875 C 72.390625 -1.386719 69.121094 0 69.121094 0 L 89.421875 0 C 89.421875 0 84.472656 -1.289062 76.746094 -13.070312 L 44.5625 -62.191406 L 72.589844 -92.789062 C 81.105469 -102.199219 91.898438 -105.863281 91.898438 -105.863281 L 75.460938 -105.863281 C 75.460938 -105.863281 76.847656 -100.019531 70.210938 -92.691406 Z M 18.714844 -36.441406 "/></g></g></g></svg>